<svg width="51" height="48" viewBox="0 0 51 48" fill="none" xmlns="http://www.w3.org/2000/svg">
<path d="M25.4026 26.4541V46.0096M25.4026 26.4541L29.0593 24.5916L33.4472 22.7292L35.6412 22.0308C36.8601 21.5652 40.9069 20.8668 43.4422 20.8668C45.9775 20.8668 45.2299 20.8668 45.6362 20.8668C45.6362 20.8668 45.6362 24.318 45.6362 26.5M25.4026 26.4541L20.7708 24.126L17.1141 22.7292L13.945 21.9038M25.4026 46.0096C27.3528 44.8456 25.89 44.6128 33.2035 42.0519C34.7134 41.5232 34.1786 41.5863 38.3228 40.8879C40.5361 40.5149 41.5902 40.4223 43.1984 40.4223C45.1486 40.4223 45.6362 40.4999 45.6362 40.1895C45.6362 40.1895 45.6362 37.068 45.6362 35.0678M25.4026 46.0096L22.2335 44.1472L18.8206 42.7504L15.1639 41.5863L13.4574 41.1207L10.5321 40.6551L8.82563 40.4223H7.60674H5.16902V39.9567V39.0255C5.16902 38.5599 5.16902 34.8637 5.16902 34.8637M45.6362 35.0678C44.9455 35.0787 44.5191 34.9624 43.9297 34.6022C43.4804 34.3276 43.2652 34.0962 42.9546 33.671C42.4434 32.9711 42.2032 32.4309 42.0625 31.5757C41.9297 30.7684 41.8911 30.311 42 29.5C42.1 28.7549 42.2703 28.2273 42.7108 27.6181C43.0618 27.1327 43.3802 26.9252 43.9297 26.6869C44.5467 26.4192 44.97 26.4074 45.6362 26.5M45.6362 35.0678C47.5 35 48.3097 33.804 48.5615 33.2054C48.8133 32.6067 49.0582 31.2621 49 30C48.9564 29.0552 48.4136 27.8131 47.5 27C46.927 26.4901 46.6113 26.5 45.6362 26.5M5.16902 25.9884C5.16902 25.8066 5.16902 25.5228 5.16902 25.5228V20.8668H8.09436L11.751 21.3324L13.945 21.9038M5.16902 25.9884C4.19574 25.9884 3.41507 26.1633 2.73307 26.9197C2.1526 27.5634 2.1489 28.1609 2.00031 29.0149C1.84447 29.9106 1.85067 30.4462 2.00031 31.3429C2.07754 31.8058 2.1356 32.0668 2.29802 32.507C2.55108 33.1928 2.72194 33.6007 3.2192 34.1366C3.82241 34.7867 5.16902 34.8637 5.16902 34.8637M5.16902 25.9884C5.26494 25.9884 5.41464 25.9884 5.41464 25.9884C5.41464 25.9884 6.86261 26.1834 7.60674 26.6869C8.04329 26.9822 8.29464 27.1774 8.58376 27.6181C8.94813 28.1735 8.97717 28.5901 9.07131 29.2477C9.28142 30.7153 9.2739 31.8226 8.33814 32.9726C8.08887 33.2789 7.60674 33.671 7.60674 33.671C7.60674 33.671 6.93754 34.3641 6.38785 34.6022C5.94113 34.7957 5.16902 34.8637 5.16902 34.8637M13.945 21.9038C13.945 21.7133 14.3838 21.0996 16.139 20.1683C16.7241 19.7959 17.8454 19.3923 18.333 19.2371L19.7957 18.7715L22.4772 18.3059H25.6464H27.8404L30.5219 18.5387L32.4721 19.2371L34.1786 19.9355L35.885 20.8668L36.6164 21.5652" stroke="white" stroke-width="3"/>
<path d="M21.7473 18.2964C21.7473 18.2964 19.3187 16.5952 18.3344 15.0371C18.0056 14.5166 17.8731 14.1937 17.6031 13.6403C17.2972 13.0134 17.1393 12.6835 17 12C16.8729 11.3764 16.8445 11.0169 16.8718 10.381C16.9109 9.46775 16.8708 8.93376 17.1155 8.053C17.3572 7.18343 17.6224 6.7293 18.0906 5.95776C18.503 5.27836 18.7628 4.90493 19.3095 4.32813C19.902 3.70309 20.274 3.36846 21.016 2.93131C21.9711 2.36859 22.6022 2.17047 23.6976 2.00009C24.6383 1.85377 26.1353 2.00009 26.1353 2.00009C26.1353 2.00009 27.84 2.047 28.8169 2.4657C29.7979 2.88613 30.7032 3.2899 31.5 4C32.3345 4.74373 32.4094 5.21834 32.9611 6.19056C33.3888 6.94432 33.5008 7.44061 33.6925 8.2858C33.8747 9.08916 33.9268 9.55733 33.9362 10.381C33.9468 11.2951 33.8117 11.6407 33.5 12.5C33.2036 13.3171 32.7912 14.4561 32 15.5C30.9432 16.8943 27.6825 18.2964 27.6825 18.2964" stroke="white" stroke-width="3"/>
</svg>
