<svg width="36" height="36" viewBox="0 0 36 36" fill="none" xmlns="http://www.w3.org/2000/svg">
<path d="M3 17.34V20.1451C3 24.6451 6 27.6451 10.5 27.6451H16.5L23.175 32.0851C24.165 32.7451 25.5 32.0401 25.5 30.8401V27.6451C30 27.6451 33 24.6451 33 20.1451V11.145C33 6.64502 30 3.64502 25.5 3.64502H10.5C6 3.64502 3 6.64502 3 11.145" stroke="white" stroke-width="1.5" stroke-miterlimit="10" stroke-linecap="round" stroke-linejoin="round"/>
<path d="M17.9997 17.04V16.7251C17.9997 15.7051 18.6298 15.1651 19.2598 14.7301C19.8748 14.3101 20.4897 13.7701 20.4897 12.7801C20.4897 11.4001 19.3797 10.29 17.9997 10.29C16.6197 10.29 15.5098 11.4001 15.5098 12.7801" stroke="white" stroke-width="1.5" stroke-linecap="round" stroke-linejoin="round"/>
<path d="M17.9932 20.625H18.0067" stroke="white" stroke-width="1.5" stroke-linecap="round" stroke-linejoin="round"/>
</svg>
