<svg width="24" height="24" viewBox="0 0 24 24" fill="none" xmlns="http://www.w3.org/2000/svg">
<path d="M12.0691 8.95005C12.0291 8.95005 11.9691 8.95005 11.9191 8.95005C10.8691 8.91005 10.0391 8.06005 10.0391 7.00005C10.0391 5.92005 10.9091 5.05005 11.9891 5.05005C13.0691 5.05005 13.9391 5.93005 13.9391 7.00005C13.9491 8.06005 13.1191 8.92005 12.0691 8.95005Z" stroke="#292D32" stroke-linecap="round" stroke-linejoin="round"/>
<path d="M9.24945 11.96C7.91945 12.85 7.91945 14.3 9.24945 15.19C10.7595 16.2 13.2395 16.2 14.7495 15.19C16.0795 14.3 16.0795 12.85 14.7495 11.96C13.2395 10.96 10.7695 10.96 9.24945 11.96Z" stroke="#292D32" stroke-linecap="round" stroke-linejoin="round"/>
</svg>
