<svg width="36" height="36" viewBox="0 0 36 36" fill="none" xmlns="http://www.w3.org/2000/svg">
<path d="M9.00027 7.75498L6.04527 9.68998C3.15027 11.58 3.15027 15.81 6.04527 17.7L15.0753 23.595C16.6953 24.66 19.3653 24.66 20.9853 23.595L29.9703 17.7C32.8503 15.81 32.8503 11.595 29.9703 9.70498L20.9853 3.80998C19.3653 2.74498 16.6953 2.74498 15.0753 3.80998" stroke="white" stroke-width="1.5" stroke-linecap="round" stroke-linejoin="round"/>
<path d="M8.44469 19.6201L8.42969 26.6551C8.42969 28.5601 9.89969 30.6001 11.6997 31.2001L16.4847 32.7901C17.3097 33.0601 18.6747 33.0601 19.5147 32.7901L24.2997 31.2001C26.0997 30.6001 27.5697 28.5601 27.5697 26.6551V19.6951" stroke="white" stroke-width="1.5" stroke-linecap="round" stroke-linejoin="round"/>
<path d="M32.0996 22.5V13.5" stroke="white" stroke-width="1.5" stroke-linecap="round" stroke-linejoin="round"/>
</svg>
